<svg width="212" height="404" viewBox="0 0 212 404" fill="none" xmlns="http://www.w3.org/2000/svg">
<path d="M172.577 271.457C194.116 271.457 211.577 253.996 211.577 232.457C211.577 210.917 194.116 193.457 172.577 193.457C151.038 193.457 133.577 210.917 133.577 232.457C133.577 253.996 151.038 271.457 172.577 271.457Z" fill="url(#paint0_linear_14_3)"/>
<path d="M168.712 247.334C167.834 247.336 166.98 247.052 166.278 246.526L166.234 246.493L157.069 239.476C156.644 239.151 156.288 238.745 156.02 238.282C155.752 237.819 155.578 237.308 155.508 236.778C155.437 236.248 155.472 235.709 155.61 235.192C155.748 234.675 155.987 234.191 156.312 233.766C156.637 233.341 157.043 232.985 157.506 232.717C157.969 232.45 158.48 232.276 159.011 232.206C159.541 232.136 160.08 232.171 160.597 232.309C161.113 232.447 161.598 232.686 162.022 233.011L167.959 237.564L181.988 219.268C182.313 218.843 182.719 218.487 183.182 218.22C183.645 217.952 184.156 217.778 184.686 217.708C185.216 217.638 185.755 217.673 186.272 217.812C186.788 217.95 187.272 218.189 187.697 218.514L187.609 218.632L187.699 218.516C188.555 219.174 189.115 220.144 189.256 221.214C189.398 222.285 189.109 223.367 188.453 224.225L171.951 245.745C171.569 246.241 171.079 246.642 170.517 246.918C169.955 247.193 169.337 247.336 168.712 247.334Z" fill="white"/>
<path d="M77.6202 71.4014C93.6033 71.4014 106.56 58.4445 106.56 42.4614C106.56 26.4783 93.6033 13.5215 77.6202 13.5215C61.6371 13.5215 48.6802 26.4783 48.6802 42.4614C48.6802 58.4445 61.6371 71.4014 77.6202 71.4014Z" fill="#18181B"/>
<path d="M55.031 26.8579C59.7076 22.1813 60.6554 15.5469 57.148 12.0394C53.6405 8.53197 47.006 9.47974 42.3294 14.1563C37.6529 18.8329 36.7051 25.4674 40.2126 28.9748C43.72 32.4823 50.3544 31.5345 55.031 26.8579Z" fill="#18181B"/>
<path d="M107.783 17.6675C109.732 13.1059 106.381 7.30198 100.299 4.70396C94.2168 2.10593 87.7068 3.69766 85.7583 8.25919C83.8097 12.8207 87.1606 18.6247 93.2426 21.2227C99.3247 23.8207 105.835 22.229 107.783 17.6675Z" fill="#18181B"/>
<path d="M158.206 209.544C158.937 208.154 159.355 206.62 159.429 205.052C159.504 203.483 159.234 201.917 158.637 200.464C158.041 199.011 157.134 197.706 155.979 196.642C154.824 195.578 153.45 194.78 151.953 194.304L110.137 105.845L91.009 119.258L138.128 201.992C137.495 204.56 137.826 207.27 139.058 209.61C140.29 211.949 142.338 213.755 144.813 214.686C147.288 215.617 150.018 215.608 152.487 214.66C154.955 213.712 156.99 211.892 158.206 209.544V209.544Z" fill="#FFB8B8"/>
<path d="M119.726 120.603L97.5179 130.534C96.886 130.816 96.2006 130.959 95.5084 130.953C94.8163 130.947 94.1336 130.792 93.5068 130.498C92.8801 130.204 92.3241 129.779 91.8766 129.25C91.4291 128.722 91.1007 128.104 90.9138 127.438L84.3646 104.084C82.9374 100.843 82.8537 97.1684 84.1317 93.8655C85.4098 90.5627 87.9454 87.9015 91.1826 86.4653C94.4198 85.0291 98.0944 84.9352 101.401 86.2041C104.707 87.473 107.375 90.0012 108.82 93.2344L121.822 113.617C122.194 114.2 122.436 114.857 122.531 115.543C122.626 116.228 122.573 116.927 122.374 117.59C122.175 118.253 121.836 118.865 121.379 119.385C120.922 119.905 120.358 120.32 119.726 120.603Z" fill="#71717A"/>
<path d="M17.1589 218.313C18.6887 217.958 20.122 217.272 21.3579 216.303C22.5937 215.333 23.602 214.105 24.3118 212.704C25.0216 211.303 25.4155 209.764 25.4659 208.194C25.5163 206.624 25.2219 205.063 24.6035 203.619L64.2059 114.147L41.5513 108.441L9.74711 198.183C7.39078 199.383 5.55639 201.405 4.59151 203.867C3.62662 206.329 3.59828 209.059 4.51189 211.54C5.42549 214.022 7.21754 216.082 9.54848 217.33C11.8794 218.578 14.5873 218.928 17.1589 218.313H17.1589Z" fill="#FFB8B8"/>
<path d="M6.36328 380.49L17.8833 384.684L39.5443 342.246L22.5413 336.056L6.36328 380.49Z" fill="#FFB8B8"/>
<path d="M36.2056 403.47L2.24763e-05 390.288L5.09323 376.299L27.3103 384.388C31.0203 385.739 34.0417 388.509 35.7099 392.087C37.3781 395.666 37.5564 399.76 36.2056 403.47Z" fill="#18181B"/>
<path d="M33.6121 356.067C32.9052 356.068 32.2071 355.911 31.5682 355.609L18.3289 349.338C17.2435 348.828 16.3882 347.931 15.9313 346.822C15.4745 345.714 15.4492 344.474 15.8604 343.348L53.2242 239.88C53.5336 239.023 54.0798 238.271 54.7992 237.712C55.5186 237.153 56.3818 236.81 57.2886 236.722C58.1954 236.634 59.1086 236.805 59.9222 237.215C60.7357 237.625 61.4163 238.257 61.885 239.038L81.6473 271.975C82.087 272.709 82.3236 273.547 82.3327 274.402C82.3419 275.258 82.1232 276.1 81.6993 276.843L37.8122 353.645C37.3869 354.383 36.7746 354.995 36.0372 355.42C35.2998 355.846 34.4633 356.069 33.6121 356.067Z" fill="#18181B"/>
<path d="M78.538 73.9311C92.1027 73.9311 103.099 62.9348 103.099 49.3701C103.099 35.8054 92.1027 24.8091 78.538 24.8091C64.9733 24.8091 53.977 35.8054 53.977 49.3701C53.977 62.9348 64.9733 73.9311 78.538 73.9311Z" fill="#FFB8B8"/>
<path d="M113.285 161.039L69.7971 149.08L46.6674 102.821C45.5563 100.599 45.0316 98.1294 45.1433 95.6473C45.255 93.1652 45.9993 90.7529 47.3056 88.6394C48.6119 86.5259 50.4367 84.7813 52.6068 83.5714C54.7769 82.3616 57.2203 81.7265 59.705 81.7266H94.3043C97.8957 81.7243 101.361 83.0497 104.034 85.4479C113.316 93.7624 132.815 117.733 113.473 160.621L113.285 161.039Z" fill="#71717A"/>
<path d="M58.8447 130.149L36.8113 119.835C36.1844 119.542 35.6281 119.116 35.1803 118.589C34.7325 118.061 34.4037 117.443 34.2164 116.776C34.029 116.11 33.9875 115.411 34.0946 114.727C34.2017 114.043 34.4549 113.39 34.837 112.813L48.2275 92.5906C49.7472 89.392 52.4733 86.9264 55.8081 85.7345C59.1428 84.5426 62.8141 84.7217 66.0171 86.2324C69.22 87.7431 71.6933 90.4622 72.8946 93.7936C74.0959 97.125 73.9272 100.797 72.4255 104.004L65.5014 127.167C65.3029 127.83 64.9639 128.443 64.5074 128.963C64.0508 129.483 63.4875 129.899 62.8558 130.182C62.2241 130.465 61.5388 130.608 60.8466 130.603C60.1544 130.597 59.4716 130.442 58.8447 130.149Z" fill="#71717A"/>
<path d="M85.5023 392.085H97.7613L103.594 344.797L85.4993 344.798L85.5023 392.085Z" fill="#FFB8B8"/>
<path d="M121.406 403.468L82.8753 403.47L82.8746 388.583L106.518 388.582C110.467 388.582 114.253 390.15 117.045 392.942C119.837 395.734 121.406 399.52 121.406 403.468Z" fill="#18181B"/>
<path d="M90.1311 374.066C89.0288 374.067 87.9597 373.689 87.1039 372.994C86.2482 372.299 85.6582 371.331 85.4334 370.251C81.9094 353.647 63.6071 268.6 49.3222 224.793C34.7881 180.222 59.5405 159.921 64.6501 156.304C65.1942 155.92 65.6266 155.398 65.9029 154.791L69.6151 146.625C70 145.782 70.6191 145.068 71.3987 144.567C72.1783 144.065 73.0855 143.799 74.0122 143.799H74.0423C101.871 143.965 111.226 152.737 113.957 156.502C114.359 157.062 114.635 157.704 114.766 158.382C114.896 159.06 114.877 159.758 114.71 160.428L97.1027 233.073C96.9935 233.523 96.9688 233.99 97.0298 234.449L114.548 366.349C114.632 366.983 114.589 367.628 114.422 368.245C114.254 368.862 113.966 369.44 113.573 369.944C113.18 370.449 112.69 370.87 112.132 371.183C111.575 371.497 110.96 371.696 110.325 371.769L90.6966 374.033C90.5089 374.055 90.3201 374.066 90.1311 374.066Z" fill="#18181B"/>
<path d="M52.7301 33.9209C58.3427 37.7892 65.0043 39.848 71.8208 39.8207C69.3893 41.5067 66.6211 42.6455 63.7072 43.1587C72.7702 45.1028 82.1369 45.1554 91.2212 43.3133C93.2404 42.9896 95.1888 42.3204 96.9809 41.3351C97.874 40.8364 98.652 40.1553 99.2646 39.3361C99.8771 38.5169 100.31 37.578 100.536 36.5804C101.14 33.1319 98.4527 29.9988 95.6602 27.8873C91.3846 24.7038 86.4549 22.5104 81.2276 21.4658C76.0004 20.4213 70.6063 20.5517 65.4356 21.8476C62.0594 22.7204 58.6771 24.1949 56.4841 26.9063C54.2912 29.6177 53.6415 33.7978 55.7309 36.5898L52.7301 33.9209Z" fill="#18181B"/>
<defs>
<linearGradient id="paint0_linear_14_3" x1="172.577" y1="193.457" x2="172.577" y2="271.457" gradientUnits="userSpaceOnUse">
<stop stop-color="#0F00FF"/>
<stop offset="1" stop-color="#00DAFF"/>
</linearGradient>
</defs>
</svg>
