<svg width="376" height="470" viewBox="0 0 376 470" fill="none" xmlns="http://www.w3.org/2000/svg">
<path d="M214.244 205C221.423 205 227.244 199.18 227.244 192C227.244 184.82 221.423 179 214.244 179C207.064 179 201.244 184.82 201.244 192C201.244 199.18 207.064 205 214.244 205Z" fill="url(#paint0_linear_13_2)"/>
<path d="M212.955 196.959C212.663 196.96 212.378 196.865 212.144 196.69L212.129 196.679L209.074 194.34C208.932 194.232 208.813 194.096 208.723 193.942C208.634 193.788 208.575 193.617 208.552 193.44C208.528 193.263 208.54 193.083 208.586 192.911C208.632 192.738 208.711 192.577 208.82 192.435C208.928 192.293 209.064 192.174 209.218 192.085C209.373 191.996 209.544 191.938 209.721 191.915C209.898 191.891 210.078 191.903 210.25 191.95C210.422 191.996 210.584 192.076 210.725 192.185L212.704 193.702L217.381 187.604C217.489 187.462 217.624 187.344 217.779 187.254C217.933 187.165 218.103 187.107 218.28 187.084C218.457 187.061 218.636 187.072 218.808 187.118C218.981 187.164 219.142 187.244 219.284 187.352L219.254 187.392L219.284 187.353C219.57 187.572 219.756 187.896 219.803 188.253C219.851 188.609 219.754 188.97 219.536 189.256L214.035 196.43C213.908 196.595 213.744 196.729 213.557 196.82C213.37 196.912 213.164 196.96 212.955 196.959Z" fill="white"/>
<path d="M214.244 243C221.423 243 227.244 237.18 227.244 230C227.244 222.82 221.423 217 214.244 217C207.064 217 201.244 222.82 201.244 230C201.244 237.18 207.064 243 214.244 243Z" fill="url(#paint1_linear_13_2)"/>
<path d="M212.955 234.959C212.663 234.96 212.378 234.865 212.144 234.69L212.129 234.679L209.074 232.34C208.932 232.232 208.813 232.096 208.723 231.942C208.634 231.788 208.575 231.617 208.552 231.44C208.528 231.263 208.54 231.083 208.586 230.911C208.632 230.738 208.711 230.577 208.82 230.435C208.928 230.293 209.064 230.174 209.218 230.085C209.373 229.996 209.544 229.938 209.721 229.915C209.898 229.891 210.078 229.903 210.25 229.95C210.422 229.996 210.584 230.076 210.725 230.185L212.704 231.702L217.381 225.604C217.489 225.462 217.624 225.344 217.779 225.254C217.933 225.165 218.103 225.107 218.28 225.084C218.457 225.061 218.636 225.072 218.808 225.118C218.981 225.164 219.142 225.244 219.284 225.352L219.254 225.392L219.284 225.353C219.57 225.572 219.756 225.896 219.803 226.253C219.851 226.609 219.754 226.97 219.536 227.256L214.035 234.43C213.908 234.595 213.744 234.729 213.557 234.82C213.37 234.912 213.164 234.96 212.955 234.959Z" fill="white"/>
<path d="M221.244 287C228.423 287 234.244 281.18 234.244 274C234.244 266.82 228.423 261 221.244 261C214.064 261 208.244 266.82 208.244 274C208.244 281.18 214.064 287 221.244 287Z" fill="url(#paint2_linear_13_2)"/>
<path d="M219.955 278.959C219.663 278.96 219.378 278.865 219.144 278.69L219.129 278.679L216.074 276.34C215.932 276.232 215.813 276.096 215.723 275.942C215.634 275.788 215.575 275.617 215.552 275.44C215.528 275.263 215.54 275.083 215.586 274.911C215.632 274.738 215.711 274.577 215.82 274.435C215.928 274.293 216.064 274.174 216.218 274.085C216.373 273.996 216.544 273.938 216.721 273.915C216.898 273.891 217.078 273.903 217.25 273.95C217.422 273.996 217.584 274.076 217.725 274.185L219.704 275.702L224.381 269.604C224.489 269.462 224.624 269.344 224.779 269.254C224.933 269.165 225.103 269.107 225.28 269.084C225.457 269.061 225.636 269.072 225.808 269.118C225.981 269.164 226.142 269.244 226.284 269.352L226.254 269.392L226.284 269.353C226.57 269.572 226.756 269.896 226.803 270.253C226.851 270.609 226.754 270.97 226.536 271.256L221.035 278.43C220.908 278.595 220.744 278.729 220.557 278.82C220.37 278.912 220.164 278.96 219.955 278.959Z" fill="white"/>
<path d="M346.6 382.539C346.465 382.539 346.38 382.536 346.351 382.534L330.211 382.536V380.156H346.409C346.784 380.17 354.435 380.386 361.485 371.831C371.991 359.082 380.619 327.522 362.058 249.567C337.101 144.747 357.916 52.1437 368.024 17.1953C368.522 15.4663 368.611 13.6451 368.284 11.8757C367.957 10.1063 367.223 8.43721 366.141 7.00021C365.058 5.5632 363.656 4.3977 362.045 3.5958C360.434 2.7939 358.659 2.37759 356.86 2.37972H115.825C113.993 2.38218 112.187 2.81667 110.554 3.64796C108.92 4.47924 107.506 5.68388 106.426 7.1641C102.144 13.0541 96.2681 24.3693 92.5911 44.8291L90.2491 44.4085C94.0058 23.5042 100.073 11.8561 104.501 5.76508C105.803 3.98149 107.506 2.52993 109.474 1.52824C111.441 0.526545 113.617 0.00296261 115.825 6.47662e-06H356.86C359.028 -0.00208019 361.167 0.500081 363.108 1.46682C365.049 2.43356 366.738 3.83838 368.043 5.5703C369.347 7.30223 370.231 9.31379 370.625 11.4461C371.018 13.5784 370.911 15.773 370.31 17.8565C360.255 52.6235 339.547 144.746 364.373 249.017C383.195 328.067 374.147 360.312 363.242 373.441C356.05 382.101 348.125 382.539 346.6 382.539Z" fill="#71717A"/>
<path d="M303.17 425.969C303.035 425.969 302.951 425.966 302.921 425.964L286.781 425.966V423.586H302.979C303.356 423.598 311.006 423.815 318.056 415.261C328.562 402.512 337.189 370.951 318.629 292.997C293.671 188.177 314.487 95.5733 324.594 60.625C325.092 58.896 325.182 57.0748 324.855 55.3054C324.528 53.536 323.794 51.8669 322.711 50.4299C321.628 48.9929 320.226 47.8274 318.615 47.0255C317.005 46.2236 315.229 45.8073 313.43 45.8094H72.3959C70.5633 45.8119 68.7572 46.2464 67.1241 47.0776C65.4909 47.9089 64.0768 49.1136 62.9965 50.5938C58.7146 56.4838 52.8386 67.799 49.1617 88.2588L46.8195 87.8382C50.5762 66.9339 56.6434 55.2858 61.0717 49.1948C62.373 47.4112 64.0767 45.9596 66.0443 44.9579C68.0119 43.9562 70.188 43.4327 72.3959 43.4297H313.43C315.598 43.4276 317.737 43.9298 319.678 44.8965C321.619 45.8633 323.309 47.2681 324.613 49C325.918 50.7319 326.802 52.7435 327.195 54.8758C327.589 57.0081 327.481 59.2027 326.881 61.2862C316.825 96.0532 296.117 188.176 320.944 292.446C339.765 371.497 330.717 403.741 319.813 416.871C312.62 425.531 304.695 425.969 303.17 425.969Z" fill="#71717A"/>
<path d="M277.514 335.88C252.684 231.61 273.394 139.48 283.454 104.72C284.053 102.636 284.159 100.442 283.765 98.3102C283.371 96.1783 282.487 94.1671 281.183 92.4353C279.879 90.7035 278.19 89.2984 276.25 88.3308C274.31 87.3633 272.171 86.8597 270.003 86.8599H28.9639C26.757 86.862 24.5816 87.3848 22.6147 88.3856C20.6477 89.3864 18.9446 90.8371 17.6436 92.6199C7.91359 106 -12.2763 150.37 10.274 273.14C22.3335 338.82 22.1538 383.6 18.2139 413.1C16.0035 429.71 12.5938 441.47 9.50346 449.4L9.17387 450.24C8.523 451.845 8.18362 453.558 8.17387 455.29C8.15107 457.245 8.54303 459.183 9.32383 460.976C10.1046 462.768 11.2565 464.375 12.7037 465.69C13.6472 466.574 14.7152 467.315 15.8736 467.89C16.8353 468.381 17.8528 468.753 18.9038 469C19.9742 469.261 21.0721 469.392 22.1739 469.39H259.494C259.524 469.39 259.604 469.4 259.744 469.4C261.264 469.4 269.194 468.96 276.384 460.3C287.284 447.17 296.334 414.93 277.514 335.88ZM274.624 458.69C267.574 467.25 259.924 467.03 259.554 467.02H22.1739C20.2734 467.019 18.402 466.553 16.7232 465.662C15.0444 464.772 13.6094 463.483 12.5435 461.91C11.606 460.549 10.9762 459.001 10.6982 457.372C10.4202 455.744 10.5005 454.074 10.9336 452.48C11.047 452.016 11.1941 451.562 11.3736 451.12C14.9033 442.049 17.5196 432.65 19.1836 423.06C24.8238 392.31 25.8736 344.86 12.6138 272.71C-9.76607 150.85 10.024 107.15 19.5635 94.0199C20.6458 92.5418 22.0606 91.339 23.6936 90.5087C25.3266 89.6783 27.1319 89.2437 28.9639 89.2399H270.003C271.802 89.2386 273.576 89.6554 275.186 90.4572C276.795 91.2591 278.197 92.4241 279.279 93.8603C280.361 95.2965 281.095 96.9647 281.422 98.733C281.749 100.501 281.66 102.322 281.164 104.05C271.054 139 250.244 231.61 275.204 336.43C293.764 414.38 285.134 445.94 274.624 458.69Z" fill="#71717A"/>
<path d="M163.003 200.4H38.8172C36.2927 200.4 33.8715 199.398 32.0864 197.612C30.3013 195.827 29.2985 193.406 29.2985 190.882C29.2985 188.357 30.3013 185.936 32.0864 184.151C33.8715 182.366 36.2927 181.363 38.8172 181.363H163.003C165.528 181.363 167.949 182.366 169.734 184.151C171.519 185.936 172.522 188.357 172.522 190.882C172.522 193.406 171.519 195.827 169.734 197.612C167.949 199.398 165.528 200.4 163.003 200.4Z" fill="#71717A"/>
<path d="M163.003 241.4H38.8172C36.2927 241.4 33.8715 240.398 32.0864 238.612C30.3013 236.827 29.2985 234.406 29.2985 231.882C29.2985 229.357 30.3013 226.936 32.0864 225.151C33.8715 223.366 36.2927 222.363 38.8172 222.363H163.003C165.528 222.363 167.949 223.366 169.734 225.151C171.519 226.936 172.522 229.357 172.522 231.882C172.522 234.406 171.519 236.827 169.734 238.612C167.949 240.398 165.528 241.4 163.003 241.4Z" fill="#71717A"/>
<path d="M173.003 283.4H48.8172C46.2927 283.4 43.8715 282.398 42.0864 280.612C40.3013 278.827 39.2985 276.406 39.2985 273.882C39.2985 271.357 40.3013 268.936 42.0864 267.151C43.8715 265.366 46.2927 264.363 48.8172 264.363H173.003C175.528 264.363 177.949 265.366 179.734 267.151C181.519 268.936 182.522 271.357 182.522 273.882C182.522 276.406 181.519 278.827 179.734 280.612C177.949 282.398 175.528 283.4 173.003 283.4Z" fill="#71717A"/>
<path d="M180.003 327.4H55.8172C53.2927 327.4 50.8715 326.397 49.0864 324.612C47.3013 322.827 46.2985 320.406 46.2985 317.882C46.2985 315.357 47.3013 312.936 49.0864 311.151C50.8715 309.366 53.2927 308.363 55.8172 308.363H180.003C182.528 308.363 184.949 309.366 186.734 311.151C188.519 312.936 189.522 315.357 189.522 317.882C189.522 320.406 188.519 322.827 186.734 324.612C184.949 326.397 182.528 327.4 180.003 327.4Z" fill="#71717A"/>
<path d="M229.244 330.881C236.423 330.881 242.244 325.061 242.244 317.881C242.244 310.702 236.423 304.881 229.244 304.881C222.064 304.881 216.244 310.702 216.244 317.881C216.244 325.061 222.064 330.881 229.244 330.881Z" fill="#71717A"/>
<path d="M186.003 370.4H61.8172C59.2927 370.4 56.8715 369.397 55.0864 367.612C53.3013 365.827 52.2985 363.406 52.2985 360.882C52.2985 358.357 53.3013 355.936 55.0864 354.151C56.8715 352.366 59.2927 351.363 61.8172 351.363H186.003C188.528 351.363 190.949 352.366 192.734 354.151C194.519 355.936 195.522 358.357 195.522 360.882C195.522 363.406 194.519 365.827 192.734 367.612C190.949 369.397 188.528 370.4 186.003 370.4Z" fill="#71717A"/>
<path d="M235.244 373.881C242.423 373.881 248.244 368.061 248.244 360.881C248.244 353.702 242.423 347.881 235.244 347.881C228.064 347.881 222.244 353.702 222.244 360.881C222.244 368.061 228.064 373.881 235.244 373.881Z" fill="#71717A"/>
<defs>
<linearGradient id="paint0_linear_13_2" x1="214.244" y1="179" x2="214.244" y2="205" gradientUnits="userSpaceOnUse">
<stop stop-color="#0F00FF"/>
<stop offset="1" stop-color="#00DAFF"/>
</linearGradient>
<linearGradient id="paint1_linear_13_2" x1="214.244" y1="217" x2="214.244" y2="243" gradientUnits="userSpaceOnUse">
<stop stop-color="#0F00FF"/>
<stop offset="1" stop-color="#00DAFF"/>
</linearGradient>
<linearGradient id="paint2_linear_13_2" x1="221.244" y1="261" x2="221.244" y2="287" gradientUnits="userSpaceOnUse">
<stop stop-color="#0F00FF"/>
<stop offset="1" stop-color="#00DAFF"/>
</linearGradient>
</defs>
</svg>
